<?xml version="1.0" encoding="iso-8859-1"?>
<!-- Uploaded to: SVG Repo, www.svgrepo.com, Generator: SVG Repo Mixer Tools -->
<svg fill="#000000" height="800px" width="800px" version="1.1" id="Layer_1" xmlns="http://www.w3.org/2000/svg" xmlns:xlink="http://www.w3.org/1999/xlink" 
	 viewBox="0 0 512 512" xml:space="preserve">
<g>
	<g>
		<circle cx="118.694" cy="42.141" r="42.141"/>
	</g>
</g>
<g>
	<g>
		<path d="M109.819,301.495H72.521c-2.761,0-5.358-0.711-7.622-1.957v188.061c0,13.475,10.924,24.4,24.4,24.4
			c13.475,0,24.4-10.924,24.4-24.4V300.995C112.455,301.309,111.159,301.495,109.819,301.495z"/>
	</g>
</g>
<g>
	<g>
		<path d="M274.519,224.424l-51.922-24.947l-18.24-66.414c-5.716-20.813-24.782-35.349-46.366-35.349c-17.622,0-76.174,0-93.71,0
			c-26.399,0-47.984,21.477-48.117,47.876c-0.046,9.031-0.296,58.94-0.343,68.101c-0.051,10.319,7.633,19.04,17.876,20.286
			l22.949,2.793c0-70.021,0-91.634,0-92.174c0-2.772,2.768-4.086,4.917-3.857c2.149,0.228,3.776,2.042,3.776,4.203v21.969
			c2.755-1.398,5.87-1.986,9.019-1.618l35.706,4.351c8,0.934,14.033,7.711,14.033,15.765v4.379
			c17.571,3.593,29.722,20.138,27.517,38.252c-1.853,15.221-13.282,26.934-27.517,29.858l0.134,229.7
			c0,13.475,10.924,24.4,24.4,24.4s24.4-10.924,24.4-24.4l0.009-315.013l12.795,46.589c1.558,5.674,5.497,10.394,10.8,12.943
			l60.27,28.959c10.124,4.863,22.273,0.602,27.136-9.52C288.903,241.436,284.641,229.287,274.519,224.424z"/>
	</g>
</g>
<g>
	<g>
		<path d="M124.098,204.766v38.157c6.933-2.55,12.231-8.79,13.185-16.626C138.447,216.738,132.767,207.94,124.098,204.766z"/>
	</g>
</g>
<g>
	<g>
		<path d="M372.411,185.01c0.696-1.082,1.104-2.368,1.104-3.751c0-3.841-3.114-6.954-6.954-6.954c-3.841,0-6.954,3.114-6.954,6.954
			c0,1.383,0.409,2.667,1.104,3.751c-31.168,2.828-55.881,28.016-57.949,59.398c-0.153,2.319,1.697,4.269,3.993,4.269h119.613
			c2.312,0,4.145-1.957,3.993-4.269C428.291,213.026,403.579,187.838,372.411,185.01z"/>
	</g>
</g>
<g>
	<g>
		<path d="M481.691,454.95h-10.627c4.331,7.168,6.828,15.564,6.828,24.533c0,1.499-0.078,2.979-0.214,4.443h4.014
			c8.001,0,14.488-6.487,14.488-14.488C496.18,461.436,489.692,454.95,481.691,454.95z"/>
	</g>
</g>
<g>
	<g>
		<path d="M389.55,454.95h-45.981c4.331,7.168,6.828,15.564,6.828,24.533c0,1.499-0.078,2.979-0.214,4.443h32.754
			c-0.136-1.464-0.214-2.944-0.214-4.443C382.722,470.514,385.219,462.118,389.55,454.95z"/>
	</g>
</g>
<g>
	<g>
		<path d="M262.057,454.951h-10.627v-0.001c-8.001,0-14.488,6.487-14.488,14.488c0,8.001,6.487,14.488,14.488,14.488h4.014
			c-0.136-1.464-0.214-2.944-0.214-4.443C255.229,470.515,257.726,462.119,262.057,454.951z"/>
	</g>
</g>
<g>
	<g>
		<path d="M485.787,397.329c-2.435-21.647-7.414-67.256-10.239-94.185c-0.669-6.378-6.042-11.232-12.455-11.232h-68.621l0.032-7.244
			c22.407-3.812,37.931-12.061,37.931-21.628c0-0.574-0.071-1.141-0.199-1.703c-0.249-1.1-2.105-1.927-4.32-1.927h-122.71
			c-2.207,0-4.067,0.826-4.319,1.922c-0.13,0.563-0.204,1.133-0.204,1.708c0,9.565,15.525,17.815,37.931,21.628l0.017,7.316
			l-67.646-0.267c-6.375-0.026-11.754,4.738-12.501,11.07l-11.152,94.541c-0.732,6.511,4.368,12.227,10.93,12.227h31.945
			c0,13.924,0,26.084,0,39.954c-11.656,4.921-19.912,16.492-19.912,29.974c0,17.96,14.643,32.517,32.517,32.517
			c17.899,0,32.516-14.573,32.516-32.516c0-13.102-7.937-24.919-19.911-29.974c0-13.871,0-26.028,0-39.955h102.283
			c0,13.923,0,26.086,0,39.955c-11.656,4.921-19.911,16.492-19.911,29.973c0,17.906,14.589,32.517,32.517,32.517
			c17.899,0,32.516-14.573,32.516-32.516c0-13.116-7.946-24.924-19.912-29.974c0-13.871,0-26.028,0-39.954h31.946
			C481.41,409.556,486.52,403.85,485.787,397.329z M302.813,491.782c-6.782,0-12.299-5.518-12.299-12.299
			s5.518-12.299,12.299-12.299s12.299,5.517,12.299,12.299C315.111,486.264,309.595,491.782,302.813,491.782z M430.307,491.782
			c-6.782,0-12.299-5.518-12.299-12.299s5.517-12.299,12.299-12.299c6.782,0,12.299,5.517,12.299,12.299
			S437.089,491.782,430.307,491.782z"/>
	</g>
</g>
</svg>