<?xml version="1.0" encoding="iso-8859-1"?>
<!-- Uploaded to: SVG Repo, www.svgrepo.com, Generator: SVG Repo Mixer Tools -->
<svg fill="#000000" height="800px" width="800px" version="1.1" id="Layer_1" xmlns="http://www.w3.org/2000/svg" xmlns:xlink="http://www.w3.org/1999/xlink" 
	 viewBox="0 0 512 512" xml:space="preserve">
<g>
	<g>
		<g>
			<path d="M326.613,142.165C322.219,137.067,320,134.528,320,128c0-6.421,2.176-8.896,6.485-13.781
				c6.272-7.125,14.848-16.896,14.848-39.552c0-5.888-4.779-10.667-10.667-10.667S320,68.779,320,74.667
				c0,14.613-4.203,19.392-9.536,25.451c-5.248,5.973-11.797,13.419-11.797,27.883s6.549,22.037,11.819,28.117
				c5.312,6.144,9.515,11.008,9.515,25.216c0,5.888,4.779,10.667,10.667,10.667s10.667-4.779,10.667-10.667
				C341.333,159.168,332.843,149.355,326.613,142.165z"/>
			<path d="M309.333,213.333h-256c-5.888,0-10.667,4.779-10.667,10.667v64c0,5.888,4.779,10.667,10.667,10.667h256
				c5.888,0,10.667-4.779,10.667-10.667v-64C320,218.112,315.221,213.333,309.333,213.333z M106.667,277.333H64v-42.667h42.667
				V277.333z M298.667,277.333H128v-42.667h170.667V277.333z"/>
			<path d="M256,0C114.837,0,0,114.837,0,256s114.837,256,256,256s256-114.837,256-256S397.163,0,256,0z M256,490.667
				c-129.387,0-234.667-105.28-234.667-234.667S126.613,21.333,256,21.333S490.667,126.613,490.667,256S385.387,490.667,256,490.667
				z"/>
			<path d="M437.333,213.333c-5.888,0-10.667,4.779-10.667,10.667v64c0,5.888,4.779,10.667,10.667,10.667
				c5.888,0,10.667-4.779,10.667-10.667v-64C448,218.112,443.221,213.333,437.333,213.333z"/>
			<path d="M352,213.333c-5.888,0-10.667,4.779-10.667,10.667v64c0,5.888,4.779,10.667,10.667,10.667
				c5.888,0,10.667-4.779,10.667-10.667v-64C362.667,218.112,357.888,213.333,352,213.333z"/>
			<path d="M394.667,213.333c-5.888,0-10.667,4.779-10.667,10.667v64c0,5.888,4.779,10.667,10.667,10.667
				s10.667-4.779,10.667-10.667v-64C405.333,218.112,400.555,213.333,394.667,213.333z"/>
		</g>
	</g>
</g>
</svg>