<?xml version="1.0" encoding="utf-8"?>
<!-- Uploaded to: SVG Repo, www.svgrepo.com, Generator: SVG Repo Mixer Tools -->
<svg fill="#000000" height="800px" width="800px" version="1.2" baseProfile="tiny" id="Layer_1" xmlns="http://www.w3.org/2000/svg" xmlns:xlink="http://www.w3.org/1999/xlink"
	  viewBox="-1095 905 256 256" xml:space="preserve">
<g>
	<path d="M-847.2,1013.1h-99.7v-0.1h-51.4l0.3-88.9c0-3.9-2.5-7-5.6-7.1l-2.8,0c-3.1,0-5.7,3.2-5.7,7l-0.3,94.5c0,0,0,0,0,0.1v2.8
		c0,1.5,0.7,2.8,1.8,3.8c1,1.1,2.3,1.8,3.8,1.8h1.3c0,0,0,0,0.1,0h1.2h0.3c0,0,0,0,0,0h155.9c3.9,0,7.1-2.5,7.1-5.7v-2.8
		C-841,1015.7-843.7,1013.4-847.2,1013.1z"/>
	<path d="M-853.7,1033.5h-158.2c0,6.6,1,12.7,2.6,18.6c0,0,0.1,0.4,0.3,1h-24.9c-4.2,0-7.6-3.4-7.6-7.6v-20.4h11.7
		c2.5,0,4.6-2.2,4.6-4.8V911.8c0-2.7-2-4.8-4.6-4.8h-58.7c-2.5,0-4.6,2.1-4.6,4.8l16.1,108.4c0,2.6,2,4.8,4.6,4.8h15.7v20.4
		c0,12.5,10.2,22.7,22.7,22.7h32.5c14.1,34.3,46.3,40.7,46.3,40.7s-0.4,24.2-0.5,35.7h-10.8v14.3h82.6v-14.3h-10.7
		c-0.7-25.5-0.7-25.6-0.7-25.6S-853.7,1081.7-853.7,1033.5z"/>
</g>
</svg>